<svg xmlns="http://www.w3.org/2000/svg" viewBox="0 0 102.5 102.5"><linearGradient id="a" gradientUnits="userSpaceOnUse" x1="119.955" y1="27.683" x2="-74.745" y2="27.683"><stop offset="0" stop-color="#551185"/><stop offset="1" stop-color="#d2047a"/></linearGradient><path d="M100.2 24L53.1.4c-1.2-.6-2.5-.6-3.7 0L2.3 24C.9 24.7 0 26.1 0 27.7s.9 3 2.3 3.7l47.1 23.5c.6.3 1.2.4 1.9.4.6 0 1.3-.1 1.9-.4l47.1-23.5c1.4-.7 2.3-2.1 2.3-3.7-.1-1.6-1-3-2.4-3.7zm-49 22.6L13.4 27.7 51.2 8.8 89 27.7 51.2 46.6z" fill="url(#a)"/><linearGradient id="b" gradientUnits="userSpaceOnUse" x1="119.955" y1="86.542" x2="-74.745" y2="86.542"><stop offset="0" stop-color="#551185"/><stop offset="1" stop-color="#d2047a"/></linearGradient><path d="M102 72.9c-1-2-3.5-2.9-5.6-1.9L51.2 93.7 6 71.1c-2-1-4.5-.2-5.6 1.9-1 2-.2 4.5 1.9 5.6L49.4 102c.6.3 1.2.4 1.9.4.6 0 1.3-.1 1.9-.4l47.1-23.5c1.9-1.1 2.7-3.5 1.7-5.6z" fill="url(#b)"/><linearGradient id="c" gradientUnits="userSpaceOnUse" x1="119.955" y1="62.998" x2="-74.745" y2="62.998"><stop offset="0" stop-color="#551185"/><stop offset="1" stop-color="#d2047a"/></linearGradient><path d="M102 49.4c-1-2-3.5-2.9-5.6-1.9L51.2 70.1 6 47.5c-2-1-4.5-.2-5.6 1.9-1 2-.2 4.5 1.9 5.6l47.1 23.5c.6.3 1.2.4 1.9.4.6 0 1.3-.1 1.9-.4L100.3 55c1.9-1.1 2.7-3.6 1.7-5.6z" fill="url(#c)"/></svg>