<svg xmlns="http://www.w3.org/2000/svg" viewBox="0 0 616.1 140.4"><linearGradient id="a" gradientUnits="userSpaceOnUse" x1="75.955" y1="54.292" x2="438.455" y2="54.292"><stop offset="0" stop-color="#551185"/><stop offset="1" stop-color="#d2047a"/></linearGradient><path d="M182.9 65.2v38.1H159v-98h38.7c7.6 0 14.2 1.4 19.6 4.2 5.4 2.8 9.5 6.5 12.3 11 2.7 4.6 4.1 9.5 4.1 14.8 0 4.5-1.1 9-3.3 13.5-2.2 4.5-6 8.4-11.4 11.6-5.4 3.2-12.5 4.8-21.4 4.8h-14.7zm23.4-21.4c2.1-2.1 3.1-5 3.1-8.5 0-3.4-1.1-6.3-3.2-8.5s-5-3.3-8.5-3.3h-14.8V47h14.8c3.7 0 6.5-1 8.6-3.2z" fill="url(#a)"/><linearGradient id="b" gradientUnits="userSpaceOnUse" x1="75.955" y1="64.76" x2="438.455" y2="64.76"><stop offset="0" stop-color="#551185"/><stop offset="1" stop-color="#d2047a"/></linearGradient><path d="M320.9 25.4v77.9H297V91.8c-2.3 3.8-5.5 6.8-9.6 9-4 2.2-8.7 3.3-14 3.3-5.9 0-11-1.3-15.6-4-4.5-2.7-8-6.5-10.6-11.5-2.6-5-3.8-10.9-3.8-17.7V25.4h23.7v42.3c0 5 1.3 8.9 4 11.7 2.7 2.7 6.3 4.1 11 4.1s8.3-1.4 11-4.1c2.7-2.7 4-6.6 4-11.7V25.4h23.8z" fill="url(#b)"/><linearGradient id="c" gradientUnits="userSpaceOnUse" x1="75.955" y1="63.922" x2="438.455" y2="63.922"><stop offset="0" stop-color="#551185"/><stop offset="1" stop-color="#d2047a"/></linearGradient><path d="M375.3 28.7c3.8-2.7 8-4.1 12.7-4.1v24.3h-5.9c-5.5 0-9.6 1.3-12.4 3.9-2.7 2.6-4.1 7.2-4.1 13.7v36.8h-23.9V25.4h23.9v14.5c2.7-4.7 5.9-8.5 9.7-11.2z" fill="url(#c)"/><linearGradient id="d" gradientUnits="userSpaceOnUse" x1="75.955" y1="82.485" x2="438.455" y2="82.485"><stop offset="0" stop-color="#551185"/><stop offset="1" stop-color="#d2047a"/></linearGradient><path d="M465.5 29.7c5.4 3.4 9.7 8.1 12.9 14.2 3.2 6 4.7 12.9 4.7 20.7 0 7.7-1.6 14.6-4.7 20.7-3.2 6-7.5 10.7-12.9 14.1s-11.4 5-17.8 5c-9.7 0-17.3-4.1-22.9-12.3v48.4H401v-115h23.9v10.2c5.3-7.3 12.9-11 22.9-11 6.4-.1 12.3 1.6 17.7 5zm-31.8 17.7c-2.6 1.4-4.7 3.6-6.4 6.4-1.6 2.8-2.4 6.4-2.4 10.5 0 4.2.8 7.7 2.4 10.6 1.6 2.9 3.8 5 6.4 6.5 2.7 1.4 5.4 2.2 8.2 2.2 2.9 0 5.6-.7 8.2-2.2 2.6-1.4 4.7-3.6 6.3-6.4 1.6-2.8 2.4-6.4 2.4-10.5 0-4.2-.8-7.7-2.4-10.6-1.6-2.9-3.8-5-6.4-6.5-2.7-1.4-5.4-2.2-8.2-2.2-2.8 0-5.5.7-8.1 2.2z" fill="url(#d)"/><linearGradient id="e" gradientUnits="userSpaceOnUse" x1="75.955" y1="51.64" x2="438.455" y2="51.64"><stop offset="0" stop-color="#551185"/><stop offset="1" stop-color="#d2047a"/></linearGradient><path d="M522.3 0v103.3h-23.9V0h23.9z" fill="url(#e)"/><linearGradient id="f" gradientUnits="userSpaceOnUse" x1="75.955" y1="64.411" x2="438.455" y2="64.411"><stop offset="0" stop-color="#551185"/><stop offset="1" stop-color="#d2047a"/></linearGradient><path d="M615.5 72.2h-53.6c.5 3.4 2 6.3 4.6 8.4 2.6 2.2 5.9 3.3 9.8 3.3 3 0 5.2-.4 6.7-1.3s3.1-2.3 4.7-4.4h25.8c-2.2 7.8-6.7 14.1-13.4 18.9-6.7 4.8-14.7 7.2-23.9 7.2-7.4 0-14.1-1.6-20-4.9-5.9-3.3-10.5-7.9-13.8-14-3.3-6.1-5-13.1-5-21.1 0-8 1.7-15 5-21s7.9-10.6 13.7-13.8c5.9-3.2 12.5-4.8 20-4.8s14.3 1.6 20.4 4.7c6 3.1 10.8 7.7 14.3 13.7 3.5 6 5.2 13.3 5.2 21.6.1 2.6-.1 5.1-.5 7.5zm-24.3-15c-.4-3.6-2-6.6-4.7-8.9-2.8-2.3-6.2-3.4-10.3-3.4-3.5 0-6.6 1.1-9.2 3.4-2.6 2.3-4.2 5.2-4.9 8.9h29.1z" fill="url(#f)"/><linearGradient id="g" gradientUnits="userSpaceOnUse" x1="119.955" y1="30.748" x2="-74.745" y2="30.748"><stop offset="0" stop-color="#551185"/><stop offset="1" stop-color="#d2047a"/></linearGradient><path d="M100.2 27L53.1 3.5c-1.2-.6-2.5-.6-3.7 0L2.3 27C.9 27.7 0 29.2 0 30.7s.9 3 2.3 3.7L49.4 58c.6.3 1.2.4 1.9.4.6 0 1.3-.1 1.9-.4l47.1-23.5c1.4-.7 2.3-2.1 2.3-3.7-.1-1.6-1-3.1-2.4-3.8zm-49 22.7l-37.8-19 37.8-18.9L89 30.7l-37.8 19z" fill="url(#g)"/><linearGradient id="h" gradientUnits="userSpaceOnUse" x1="119.955" y1="89.608" x2="-74.745" y2="89.608"><stop offset="0" stop-color="#551185"/><stop offset="1" stop-color="#d2047a"/></linearGradient><path d="M102 76c-1-2-3.5-2.9-5.6-1.9L51.2 96.8 6 74.1c-2-1-4.5-.2-5.6 1.9-1 2-.2 4.5 1.9 5.6l47.1 23.5c.6.3 1.2.4 1.9.4.6 0 1.3-.1 1.9-.4l47.1-23.5c1.9-1.1 2.7-3.6 1.7-5.6z" fill="url(#h)"/><linearGradient id="i" gradientUnits="userSpaceOnUse" x1="119.955" y1="66.064" x2="-74.745" y2="66.064"><stop offset="0" stop-color="#551185"/><stop offset="1" stop-color="#d2047a"/></linearGradient><path d="M102 52.4c-1-2-3.5-2.9-5.6-1.9L51.2 73.2 6 50.6c-2-1-4.5-.2-5.6 1.9-1 2-.2 4.5 1.9 5.6l47.1 23.5c.6.3 1.2.4 1.9.4.6 0 1.3-.1 1.9-.4l47-23.6c2-1 2.8-3.5 1.8-5.6z" fill="url(#i)"/></svg>